<?xml version="1.0"?>
<svg xmlns="http://www.w3.org/2000/svg" height="512px" viewBox="0 0 384 384" width="512px"><path d="m155.3125 84.6875c-6.242188-6.246094-16.382812-6.246094-22.625 0l-12.6875 12.6875-12.6875-12.6875c-6.242188-6.246094-16.382812-6.246094-22.625 0-6.246094 6.25-6.246094 16.375 0 22.625l12.6875 12.6875-12.6875 12.6875c-6.246094 6.25-6.246094 16.375 0 22.625 3.121094 3.128906 7.214844 4.6875 11.3125 4.6875s8.191406-1.558594 11.3125-4.6875l12.6875-12.6875 12.6875 12.6875c3.121094 3.128906 7.214844 4.6875 11.3125 4.6875s8.191406-1.558594 11.3125-4.6875c6.246094-6.25 6.246094-16.375 0-22.625l-12.6875-12.6875 12.6875-12.6875c6.246094-6.25 6.246094-16.375 0-22.625zm0 0" fill="#4cb69f"/><path d="m264 208c-30.878906 0-56 25.128906-56 56s25.121094 56 56 56 56-25.128906 56-56-25.121094-56-56-56zm0 80c-13.230469 0-24-10.769531-24-24s10.769531-24 24-24 24 10.769531 24 24-10.769531 24-24 24zm0 0" fill="#4cb69f"/><path d="m379.3125 4.6875c-6.242188-6.246094-16.382812-6.246094-22.625 0l-49.785156 49.785156c-14.390625-8.480468-32.757813-8.457031-47.132813 1.128906l-20.671875 13.789063-34.242187-34.238281c-.101563-.105469-.230469-.175782-.335938-.273438-22.609375-22.488281-52.589843-34.878906-84.519531-34.878906-32.070312 0-62.199219 12.496094-84.824219 35.152344-22.679687 22.648437-35.175781 52.777344-35.175781 84.847656s12.496094 62.199219 35.152344 84.824219c22.800781 22.863281 53.207031 35.265625 84.679687 35.265625 5.433594 0 10.902344-.515625 16.367188-1.265625l8.878906 8.886719c-5.125 37.128906 7.273437 74.394531 34.082031 101.121093 22.640625 22.671875 52.769532 35.167969 84.839844 35.167969s62.199219-12.496094 84.824219-35.152344c22.679687-22.648437 35.175781-52.777344 35.175781-84.847656 0-31.9375-12.398438-61.9375-34.902344-84.550781-.089844-.097657-.152344-.210938-.25-.296875l-33.175781-33.175782 13.960937-22.375c9.121094-14.609374 8.765626-32.5625.046876-46.664062l49.632812-49.632812c6.246094-6.242188 6.246094-16.367188 0-22.617188zm-53.121094 321.527344c-16.589844 16.625-38.679687 25.785156-62.191406 25.785156s-45.601562-9.160156-62.222656-25.808594c-21.226563-21.167968-30.160156-51.296875-23.898438-80.605468.007813-.042969.007813-.082032.015625-.121094.152344-.738282.203125-1.480469.25-2.234375.015625-.308594.085938-.628907.085938-.933594 0-.59375-.09375-1.183594-.160157-1.777344-.046874-.441406-.039062-.886719-.125-1.320312-.074218-.375-.226562-.734375-.328124-1.101563-.167969-.617187-.304688-1.25-.546876-1.839844-.148437-.378906-.375-.714843-.558593-1.082031-.28125-.566406-.535157-1.144531-.878907-1.671875-.183593-.28125-.425781-.519531-.625-.785156-.433593-.582031-.863281-1.167969-1.375-1.6875-.03125-.03125-.046874-.070312-.082031-.101562l-20.480469-20.488282c-.039062-.042968-.085937-.066406-.117187-.105468-.449219-.441407-.960937-.808594-1.464844-1.191407-.34375-.265625-.65625-.570312-1.015625-.800781-.410156-.265625-.863281-.457031-1.296875-.679688-.480469-.257812-.945312-.550781-1.441406-.753906-.902344-.367187-1.855469-.636718-2.824219-.839844-.03125-.007812-.0625-.023437-.101562-.03125-.738282-.144531-1.503906-.175781-2.265625-.214843-.269531-.015625-.542969-.070313-.816407-.070313-.46875 0-.941406.09375-1.421874.132813-.585938.058593-1.175782.082031-1.753907.191406-.046875.011719-.101562.011719-.152343.019531-29.328126 6.261719-59.4375-2.648437-80.628907-23.914062-16.609375-16.582032-25.769531-38.671875-25.769531-62.183594s9.160156-45.601562 25.808594-62.214844c16.589844-16.625 38.679687-25.785156 62.191406-25.785156s45.601562 9.160156 62.191406 25.785156c.066406.0625.144532.109375.214844.175782l43.167969 43.167968c.144531.152344.296875.304688.449219.445313l58.039062 58.042969c.144531.144531.289062.292968.441406.4375l41.511719 41.511718c.074219.074219.121094.160156.191406.242188 16.632813 16.589844 25.792969 38.679687 25.792969 62.191406s-9.160156 45.601562-25.808594 62.214844zm-64.023437-233.742188 15.351562-10.242187c4.878907-3.261719 11.457031-2.613281 15.617188 1.539062l7.597656 7.597657c4.089844 4.097656 4.808594 10.386718 1.746094 15.296874l-10.03125 16.089844zm0 0" fill="#4cb69f"/><path d="m219.3125 203.3125c6.246094-6.25 6.246094-16.375 0-22.625l-16-16c-6.242188-6.246094-16.382812-6.246094-22.625 0-6.246094 6.25-6.246094 16.375 0 22.625l16 16c3.121094 3.128906 7.214844 4.6875 11.3125 4.6875s8.191406-1.558594 11.3125-4.6875zm0 0" fill="#4cb69f"/></svg>
