<?xml version="1.0" encoding="iso-8859-1"?>
<!-- Generator: Adobe Illustrator 19.0.0, SVG Export Plug-In . SVG Version: 6.00 Build 0)  -->
<svg version="1.1" id="Capa_1" xmlns="http://www.w3.org/2000/svg" xmlns:xlink="http://www.w3.org/1999/xlink" x="0px" y="0px"
	 viewBox="0 0 512 512" style="enable-background:new 0 0 512 512;" xml:space="preserve">
<path style="fill:#F0F0FA;" d="M390.178,257.998H121.822c-61.766,0-111.836,50.071-111.836,111.836S60.056,481.67,121.822,481.67
	c43.022,0,80.362-24.296,99.068-59.912h70.221c18.706,35.616,56.047,59.912,99.068,59.912c61.766,0,111.836-50.071,111.836-111.836
	S451.944,257.998,390.178,257.998z"/>
<path style="fill:#878791;" d="M157.774,349.99h-15.977v-15.977c0-11.03-8.941-19.971-19.971-19.971s-19.971,8.941-19.971,19.971
	v15.977H85.879c-11.03,0-19.971,8.941-19.971,19.971l0,0c0,11.03,8.941,19.971,19.971,19.971h15.977v15.977
	c0,11.03,8.941,19.971,19.971,19.971s19.971-8.941,19.971-19.971v-15.977h15.977c11.03,0,19.971-8.941,19.971-19.971l0,0
	C177.745,358.931,168.804,349.99,157.774,349.99z"/>
<circle style="fill:#FF6E37;" cx="388.441" cy="325.003" r="19.971"/>
<circle style="fill:#A5DC69;" cx="388.441" cy="414.921" r="19.971"/>
<circle style="fill:#6E87F5;" cx="343.477" cy="369.957" r="19.971"/>
<circle style="fill:#DC4B4B;" cx="433.395" cy="369.957" r="19.971"/>
<path style="fill:#9BBEFF;" d="M253.134,218.057L253.134,218.057c-19.853,0-35.947,16.094-35.947,35.947v3.994h71.895v-3.994
	C289.082,234.151,272.987,218.057,253.134,218.057z"/>
<path d="M390.178,248.013h-8.066c-5.514,0-9.985,4.47-9.985,9.985c0,5.515,4.471,9.985,9.985,9.985h8.066
	c56.161,0,101.851,45.69,101.851,101.851s-45.69,101.851-101.851,101.851c-37.975,0-72.549-20.909-90.227-54.57
	c-1.726-3.285-5.13-5.342-8.841-5.342h-70.221c-3.711,0-7.115,2.058-8.841,5.342c-17.678,33.66-52.251,54.57-90.227,54.57
	c-56.161,0-101.851-45.69-101.851-101.851s45.69-101.851,101.851-101.851h95.365h71.895h20.969c5.514,0,9.985-4.47,9.985-9.985
	c0-5.515-4.471-9.985-9.985-9.985h-11.387c-2.4-18.325-15.634-33.278-33.048-38.204v-52.924c0-15.278-12.429-27.707-27.706-27.707
	h-36.453c-4.265,0-7.736-3.471-7.736-7.737V69.932c0-5.515-4.471-9.985-9.985-9.985c-5.514,0-9.985,4.47-9.985,9.985v51.511
	c0,15.278,12.429,27.707,27.706,27.707h36.453c4.265,0,7.736,3.471,7.736,7.737v51.807c-19.834,3.267-35.416,19.281-38.04,39.321
	h-85.783C54.649,248.015,0,302.664,0,369.836s54.649,121.822,121.822,121.822c43.374,0,83.036-22.806,104.931-59.912h58.494
	c21.895,37.107,61.557,59.912,104.931,59.912c67.173,0,121.822-54.649,121.822-121.822S457.351,248.013,390.178,248.013z
	 M253.134,228.042c12.254,0,22.553,8.533,25.265,19.971h-50.53C230.581,236.576,240.879,228.042,253.134,228.042z"/>
<path d="M344.5,267.989c2.626,0,5.202-1.068,7.059-2.936c1.857-1.857,2.927-4.424,2.927-7.05c0-2.636-1.068-5.202-2.927-7.07
	c-1.856-1.857-4.432-2.916-7.059-2.916s-5.202,1.058-7.06,2.916c-1.857,1.867-2.926,4.434-2.926,7.07
	c0,2.626,1.067,5.192,2.926,7.05C339.298,266.921,341.874,267.989,344.5,267.989z"/>
<path d="M121.827,435.865c16.518,0,29.956-13.438,29.956-29.956v-5.991h5.991c16.518,0,29.956-13.438,29.956-29.956
	s-13.438-29.956-29.956-29.956h-5.991v-5.991c0-16.518-13.438-29.956-29.956-29.956S91.87,317.496,91.87,334.014v5.991h-5.991
	c-16.518,0-29.956,13.438-29.956,29.956s13.438,29.956,29.956,29.956h5.991v5.991C91.87,422.426,105.309,435.865,121.827,435.865z
	 M85.879,379.946c-5.506,0-9.985-4.479-9.985-9.985s4.479-9.985,9.985-9.985h15.977c5.514,0,9.985-4.47,9.985-9.985v-15.977
	c0-5.506,4.479-9.985,9.985-9.985s9.985,4.479,9.985,9.985v15.977c0,5.515,4.471,9.985,9.985,9.985h15.977
	c5.506,0,9.985,4.479,9.985,9.985s-4.479,9.985-9.985,9.985h-15.977c-5.514,0-9.985,4.47-9.985,9.985v15.977
	c0,5.506-4.479,9.985-9.985,9.985s-9.985-4.479-9.985-9.985v-15.977c0-5.515-4.471-9.985-9.985-9.985H85.879z"/>
<path d="M388.437,354.955c16.518,0,29.956-13.438,29.956-29.956s-13.438-29.956-29.956-29.956s-29.956,13.438-29.956,29.956
	S371.919,354.955,388.437,354.955z M388.437,315.014c5.506,0,9.985,4.479,9.985,9.985c0,5.506-4.479,9.985-9.985,9.985
	s-9.985-4.479-9.985-9.985C378.452,319.493,382.931,315.014,388.437,315.014z"/>
<path d="M388.437,384.967c-16.518,0-29.956,13.438-29.956,29.956s13.438,29.956,29.956,29.956s29.956-13.438,29.956-29.956
	S404.955,384.967,388.437,384.967z M388.437,424.909c-5.506,0-9.985-4.479-9.985-9.985s4.479-9.985,9.985-9.985
	s9.985,4.479,9.985,9.985S393.943,424.909,388.437,424.909z"/>
<path d="M463.355,369.961c0-16.518-13.438-29.956-29.956-29.956s-29.956,13.438-29.956,29.956s13.438,29.956,29.956,29.956
	S463.355,386.479,463.355,369.961z M423.414,369.961c0-5.506,4.479-9.985,9.985-9.985s9.985,4.479,9.985,9.985
	s-4.479,9.985-9.985,9.985S423.414,375.467,423.414,369.961z"/>
<path d="M343.475,399.917c16.518,0,29.956-13.438,29.956-29.956s-13.438-29.956-29.956-29.956s-29.956,13.438-29.956,29.956
	S326.957,399.917,343.475,399.917z M343.475,359.976c5.506,0,9.985,4.479,9.985,9.985s-4.479,9.985-9.985,9.985
	c-5.506,0-9.985-4.479-9.985-9.985S337.969,359.976,343.475,359.976z"/>
<path d="M183.736,40.313c2.626,0,5.202-1.068,7.059-2.926c1.857-1.867,2.927-4.434,2.927-7.06c0-2.636-1.068-5.202-2.927-7.06
	c-1.856-1.867-4.433-2.926-7.059-2.926c-2.626,0-5.202,1.058-7.06,2.926c-1.857,1.857-2.926,4.424-2.926,7.06
	c0,2.626,1.067,5.192,2.926,7.06C178.533,39.244,181.11,40.313,183.736,40.313z"/>
<g>
</g>
<g>
</g>
<g>
</g>
<g>
</g>
<g>
</g>
<g>
</g>
<g>
</g>
<g>
</g>
<g>
</g>
<g>
</g>
<g>
</g>
<g>
</g>
<g>
</g>
<g>
</g>
<g>
</g>
</svg>
